# xmcd
#
# Track frame offsets:
#	150
#	7574
#	19038
#	36943
#	58312
#	75933
#	89627
#	109612
#	128485
#	142980
#	152712
#	180540
#	198716
#	213153
#
# Disc length: 3010 seconds
#
# Revision: 1
# Processed by: cddbd v1.4PL0 Copyright (c) Steve Scherf et al.
# Submitted via: audiograbber 1.80
#
DISCID=aa0bc00e
DTITLE=Janne "Fjellis" Fjellström - Till Och Från En Blå Man [CD 2)
DYEAR=1900
DGENRE=
TTITLE0=Always Blue
TTITLE1=Different Style
TTITLE2=Sugar Coated Love
TTITLE3=I Tried
TTITLE4=You Got To Move
TTITLE5=National Defense Blues
TTITLE6=Rollin´ And Tumblin´
TTITLE7=Steady Rolling Man
TTITLE8=Tee Ni Nee Ni Nu
TTITLE9=I Believe I´m In Love
TTITLE10=Texas Flood
TTITLE11=Walkin´ Blues
TTITLE12=Bye Bye Johnny
TTITLE13=Country Cruisin´
EXTD=
EXTT0=
EXTT1=
EXTT2=
EXTT3=
EXTT4=
EXTT5=
EXTT6=
EXTT7=
EXTT8=
EXTT9=
EXTT10=
EXTT11=
EXTT12=
EXTT13=
PLAYORDER=
